<?xml version="1.0" encoding="utf-8"?>
<!-- Generator: Adobe Illustrator 18.1.1, SVG Export Plug-In . SVG Version: 6.00 Build 0)  -->
<svg version="1.1" id="Layer_1" xmlns="http://www.w3.org/2000/svg" xmlns:xlink="http://www.w3.org/1999/xlink" x="0px" y="0px"
	 viewBox="0 0 156.4 197.6" enable-background="new 0 0 156.4 197.6" xml:space="preserve">
<g>
	<path d="M150.9,25.5h-27.4c-1,0-1.1,1.1-1.1,1.1l-1.2,8.7c0,0-0.3,1.2,1,1.2H140c3,0,5.4,2.5,5.4,5.4v139.4c0,3-2.5,5.4-5.4,5.4
		H16.3c-3,0-5.4-2.5-5.4-5.4V41.9c0-3,2.5-5.4,5.4-5.4h18.2c0.9,0,0.7-1,0.7-1L34,26.5c0,0-0.2-1-1-1H5.4C2.5,25.5,0,28,0,31v161.2
		c0,3,2.5,5.4,5.4,5.4h145.5c3,0,5.4-2.5,5.4-5.4V31C156.4,28,153.9,25.5,150.9,25.5L150.9,25.5z"/>
	<path d="M150.9,25.5"/>
	<path d="M108.5,15.2H97.2c-0.7,0-0.8-0.2-0.9-0.7C94.7,6,87.2,0,78.2,0c-8.9,0-16.3,5.7-18.1,14.1c-0.1,0.6-0.1,1.1-0.9,1.1H47.9
		c-1.8,0-3.1,2.2-2.8,4L48,40.3c0.3,1.8,1.9,3.9,3.7,3.9h52.9c1.8,0,3.5-1.8,3.7-3.5l2.9-21.3C111.5,17.6,110.3,15.2,108.5,15.2z
		 M78.2,21.4c-3.1,0-5.6-2.5-5.6-5.6c0-3.1,2.5-5.6,5.6-5.6c3.1,0,5.6,2.5,5.6,5.6C83.8,18.9,81.3,21.4,78.2,21.4z"/>
	<path d="M78.2,21.4"/>
	<path d="M90.6,74.3c0,1.2-1,2.2-2.2,2.2H29.3c-1.2,0-2.2-1-2.2-2.2v-4.4c0-1.2,1-2.2,2.2-2.2h59.2c1.2,0,2.2,1,2.2,2.2V74.3z
		 M90.6,74.3"/>
	<path fill="#39B54A" d="M119.3,81.2c-0.9,0.9-2.4,0.9-3.4,0l-8.5-8.5c-0.9-0.9-0.9-2.4,0-3.4l2.2-2.2c0.9-0.9,2.4-0.9,3.4,0
		l2.9,2.9c0.9,0.9,2.4,0.9,3.4,0l7.2-7.2c0.9-0.9,2.4-0.9,3.4,0l2.2,2.2c0.9,0.9,0.9,2.4,0,3.4L119.3,81.2z M119.3,81.2"/>
	<path d="M90.6,104.8c0,1.2-1,2.2-2.2,2.2H29.3c-1.2,0-2.2-1-2.2-2.2v-4.4c0-1.2,1-2.2,2.2-2.2h59.2c1.2,0,2.2,1,2.2,2.2V104.8z
		 M90.6,104.8"/>
	<path fill="#39B54A" d="M119.3,111.7c-0.9,0.9-2.4,0.9-3.4,0l-8.5-8.5c-0.9-0.9-0.9-2.4,0-3.4l2.2-2.2c0.9-0.9,2.4-0.9,3.4,0
		l2.9,2.9c0.9,0.9,2.4,0.9,3.4,0l7.2-7.2c0.9-0.9,2.4-0.9,3.4,0l2.2,2.2c0.9,0.9,0.9,2.4,0,3.4L119.3,111.7z M119.3,111.7"/>
	<path d="M72.6,135.3c0,1.2-1,2.2-2.2,2.2H29.3c-1.2,0-2.2-1-2.2-2.2v-4.4c0-1.2,1-2.2,2.2-2.2h41.2c1.2,0,2.2,1,2.2,2.2V135.3z
		 M72.6,135.3"/>
	<path fill="#39B54A" d="M119.3,142.2c-0.9,0.9-2.4,0.9-3.4,0l-8.5-8.5c-0.9-0.9-0.9-2.4,0-3.4l2.2-2.2c0.9-0.9,2.4-0.9,3.4,0
		l2.9,2.9c0.9,0.9,2.4,0.9,3.4,0l7.2-7.2c0.9-0.9,2.4-0.9,3.4,0l2.2,2.2c0.9,0.9,0.9,2.4,0,3.4L119.3,142.2z M119.3,142.2"/>
</g>
</svg>
