<?xml version="1.0" encoding="utf-8"?>
<!-- Generator: Adobe Illustrator 18.1.1, SVG Export Plug-In . SVG Version: 6.00 Build 0)  -->
<svg version="1.1" id="Layer_1" xmlns="http://www.w3.org/2000/svg" xmlns:xlink="http://www.w3.org/1999/xlink" x="0px" y="0px"
	 viewBox="0 0 220.9 220.9" enable-background="new 0 0 220.9 220.9" xml:space="preserve">
<g>
	<circle fill="#39B54A" cx="110.4" cy="110.4" r="110.4"/>
	<rect x="46.5" y="38.3" fill="#FFFFFF" width="128.7" height="143.1"/>
	<path d="M175.2,33.7h-24.3c-0.9,0-1,0.9-1,0.9l-1.1,7.7c0,0-0.3,1,0.9,1h15.8c2.6,0,4.8,2.2,4.8,4.8v123.3c0,2.6-2.2,4.8-4.8,4.8
		H56.1c-2.7,0-4.8-2.2-4.8-4.8V48.1c0-2.7,2.2-4.8,4.8-4.8h16.1c0.8,0,0.6-0.9,0.6-0.9l-1.1-7.9c0,0-0.2-0.9-0.9-0.9H46.5
		c-2.6,0-4.8,2.2-4.8,4.8v142.6c0,2.6,2.2,4.8,4.8,4.8h128.7c2.6,0,4.8-2.2,4.8-4.8V38.5C180,35.8,177.8,33.7,175.2,33.7L175.2,33.7
		z"/>
	<path d="M175.2,33.7"/>
	<path d="M137.6,25.5h-9.9c-0.6,0-0.7-0.7-0.8-1.1c-1.5-7.5-8.1-13.1-16.1-13.1c-7.9,0-14.4,5.4-16,12.8c-0.1,0.5-0.1,1.3-0.8,1.3
		H84c-1.6,0-2.7,1.5-2.5,3.1l2.6,19.1c0.2,1.6,1.7,3.9,3.3,3.9h46.8c1.6,0,3.1-2.2,3.3-3.8l2.6-18.7
		C140.3,27.4,139.2,25.5,137.6,25.5z M110.8,30c-2.7,0-4.9-2.2-4.9-4.9c0-2.7,2.2-4.9,4.9-4.9c2.7,0,4.9,2.2,4.9,4.9
		C115.8,27.8,113.5,30,110.8,30z"/>
	<path d="M110.8,30"/>
	<path d="M121.8,76.8c0,1-0.9,1.9-1.9,1.9H67.5c-1.1,0-1.9-0.9-1.9-1.9v-3.9c0-1,0.9-1.9,1.9-1.9h52.4c1.1,0,1.9,0.9,1.9,1.9V76.8z
		 M121.8,76.8"/>
	<path fill="#39B54A" d="M147.2,82.9c-0.8,0.8-2.2,0.8-3,0l-7.5-7.5c-0.8-0.8-0.8-2.2,0-3l1.9-1.9c0.8-0.8,2.2-0.8,3,0l2.6,2.6
		c0.8,0.8,2.2,0.8,3,0l6.3-6.3c0.8-0.8,2.2-0.8,3,0l1.9,1.9c0.8,0.8,0.8,2.2,0,3L147.2,82.9z M147.2,82.9"/>
	<path d="M121.8,103.8c0,1.1-0.9,1.9-1.9,1.9H67.5c-1.1,0-1.9-0.9-1.9-1.9v-3.9c0-1.1,0.9-1.9,1.9-1.9h52.4c1.1,0,1.9,0.9,1.9,1.9
		V103.8z M121.8,103.8"/>
	<path fill="#39B54A" d="M147.2,109.9c-0.8,0.8-2.2,0.8-3,0l-7.5-7.5c-0.8-0.8-0.8-2.2,0-3l1.9-1.9c0.8-0.8,2.2-0.8,3,0l2.6,2.6
		c0.8,0.8,2.2,0.8,3,0l6.3-6.3c0.8-0.8,2.2-0.8,3,0l1.9,1.9c0.8,0.8,0.8,2.2,0,3L147.2,109.9z M147.2,109.9"/>
	<path d="M105.9,130.8c0,1.1-0.9,1.9-1.9,1.9H67.5c-1.1,0-1.9-0.9-1.9-1.9v-3.9c0-1.1,0.9-1.9,1.9-1.9H104c1.1,0,1.9,0.9,1.9,1.9
		V130.8z M105.9,130.8"/>
	<path fill="#39B54A" d="M147.2,136.9c-0.8,0.8-2.2,0.8-3,0l-7.5-7.5c-0.8-0.8-0.8-2.2,0-3l1.9-1.9c0.8-0.8,2.2-0.8,3,0l2.6,2.6
		c0.8,0.8,2.2,0.8,3,0l6.3-6.3c0.8-0.8,2.2-0.8,3,0l1.9,1.9c0.8,0.8,0.8,2.2,0,3L147.2,136.9z M147.2,136.9"/>
</g>
</svg>
